<svg width="18" height="18" viewBox="0 0 20 20" fill="#4A5568" xmlns="http://www.w3.org/2000/svg">
<path d="M7.69507 5.95706H11.6951V4.45706C11.6951 3.76483 11.9003 3.08814 12.2849 2.51257C12.6695 1.937 13.2161 1.48839 13.8557 1.22348C14.4952 0.958578 15.199 0.889267 15.8779 1.02431C16.5568 1.15936 17.1805 1.49271 17.6699 1.98219C18.1594 2.47167 18.4928 3.09531 18.6278 3.77425C18.7629 4.45318 18.6936 5.15691 18.4286 5.79646C18.1637 6.436 17.7151 6.98262 17.1396 7.36721C16.564 7.75179 15.8873 7.95706 15.1951 7.95706H13.6951V11.9571H15.1951C15.8873 11.9571 16.564 12.1623 17.1396 12.5469C17.7151 12.9315 18.1637 13.4781 18.4286 14.1177C18.6936 14.7572 18.7629 15.4609 18.6278 16.1399C18.4928 16.8188 18.1594 17.4425 17.6699 17.9319C17.1805 18.4214 16.5568 18.7548 15.8779 18.8898C15.199 19.0249 14.4952 18.9555 13.8557 18.6906C13.2161 18.4257 12.6695 17.9771 12.2849 17.4016C11.9003 16.826 11.6951 16.1493 11.6951 15.4571V13.9571H7.69507V15.4571C7.69507 16.1493 7.4898 16.826 7.10521 17.4016C6.72063 17.9771 6.174 18.4257 5.53446 18.6906C4.89492 18.9555 4.19119 19.0249 3.51225 18.8898C2.83332 18.7548 2.20968 18.4214 1.7202 17.9319C1.23071 17.4425 0.89737 16.8188 0.762321 16.1399C0.627273 15.4609 0.696585 14.7572 0.961492 14.1177C1.2264 13.4781 1.675 12.9315 2.25057 12.5469C2.82615 12.1623 3.50284 11.9571 4.19507 11.9571H5.69507V7.95706H4.19507C3.50284 7.95706 2.82615 7.75179 2.25057 7.36721C1.675 6.98262 1.2264 6.436 0.961492 5.79646C0.696585 5.15691 0.627273 4.45318 0.762321 3.77425C0.89737 3.09531 1.23071 2.47167 1.7202 1.98219C2.20968 1.49271 2.83332 1.15936 3.51225 1.02431C4.19119 0.889267 4.89492 0.958578 5.53446 1.22348C6.174 1.48839 6.72063 1.937 7.10521 2.51257C7.4898 3.08814 7.69507 3.76483 7.69507 4.45706V5.95706ZM5.69507 5.95706V4.45706C5.69507 4.16039 5.6071 3.87038 5.44227 3.62371C5.27745 3.37703 5.04318 3.18478 4.76909 3.07124C4.49501 2.95771 4.19341 2.92801 3.90243 2.98589C3.61146 3.04376 3.34419 3.18662 3.13441 3.3964C2.92463 3.60618 2.78177 3.87346 2.72389 4.16443C2.66601 4.4554 2.69572 4.757 2.80925 5.03109C2.92278 5.30518 3.11504 5.53945 3.36171 5.70427C3.60839 5.86909 3.8984 5.95706 4.19507 5.95706H5.69507ZM5.69507 13.9571H4.19507C3.8984 13.9571 3.60839 14.045 3.36171 14.2099C3.11504 14.3747 2.92278 14.609 2.80925 14.883C2.69572 15.1571 2.66601 15.4587 2.72389 15.7497C2.78177 16.0407 2.92463 16.3079 3.13441 16.5177C3.34419 16.7275 3.61146 16.8704 3.90243 16.9282C4.19341 16.9861 4.49501 16.9564 4.76909 16.8429C5.04318 16.7294 5.27745 16.5371 5.44227 16.2904C5.6071 16.0437 5.69507 15.7537 5.69507 15.4571V13.9571ZM13.6951 5.95706H15.1951C15.4917 5.95706 15.7818 5.86909 16.0284 5.70427C16.2751 5.53945 16.4674 5.30518 16.5809 5.03109C16.6944 4.757 16.7241 4.4554 16.6662 4.16443C16.6084 3.87346 16.4655 3.60618 16.2557 3.3964C16.046 3.18662 15.7787 3.04376 15.4877 2.98589C15.1967 2.92801 14.8951 2.95771 14.621 3.07124C14.347 3.18478 14.1127 3.37703 13.9479 3.62371C13.783 3.87038 13.6951 4.16039 13.6951 4.45706V5.95706ZM13.6951 13.9571V15.4571C13.6951 15.7537 13.783 16.0437 13.9479 16.2904C14.1127 16.5371 14.347 16.7294 14.621 16.8429C14.8951 16.9564 15.1967 16.9861 15.4877 16.9282C15.7787 16.8704 16.046 16.7275 16.2557 16.5177C16.4655 16.3079 16.6084 16.0407 16.6662 15.7497C16.7241 15.4587 16.6944 15.1571 16.5809 14.883C16.4674 14.609 16.2751 14.3747 16.0284 14.2099C15.7818 14.045 15.4917 13.9571 15.1951 13.9571H13.6951ZM7.69507 7.95706V11.9571H11.6951V7.95706H7.69507Z" fill="#4A5568"/>
</svg>
